<svg xmlns="http://www.w3.org/2000/svg" width="119.44mm" height="15.05mm" viewBox="0 0 338.56 42.67"><path d="M44,.08A21.34,21.34,0,0,0,31.74,2.71a21.48,21.48,0,0,1,8.2,8.18c.22-.41.44-.83.64-1.26a1.74,1.74,0,0,1,3.14,0A21.45,21.45,0,0,0,53.83,19.76a1.74,1.74,0,0,1,0,3.15A21.45,21.45,0,0,0,43.73,33a1.75,1.75,0,0,1-3.15,0A21.33,21.33,0,0,0,21.31,20.84h0a.5.5,0,0,0-.48.49h0A21.34,21.34,0,1,0,44,.08Z" fill="#e60020"/><path d="M21.34,0a21.34,21.34,0,1,0,10.4,40,21.45,21.45,0,0,1-8.19-8.18c-.22.41-.43.81-.63,1.23a1.75,1.75,0,0,1-3.16,0A21.38,21.38,0,0,0,9.66,22.91a1.74,1.74,0,0,1,0-3.15,21.52,21.52,0,0,0,10.1-10.1,1.74,1.74,0,0,1,3.15,0A21.35,21.35,0,0,0,42.18,21.83h0a.49.49,0,0,0,.48-.49h0A21.33,21.33,0,0,0,21.34,0Z" fill="#69bd83"/><path d="M264.26,37.27v-.39a3.42,3.42,0,0,0,2.42-2.16q.66-1.68.66-8.08V9.75a5.46,5.46,0,0,0-.6-2.89,2.84,2.84,0,0,0-2-1.17l0-.53,2.26,0h3.13c1.36,0,3,0,5,0l4,0q7.26,0,10.65,1.77a5.85,5.85,0,0,1,3.4,5.55,5.89,5.89,0,0,1-2.43,4.94q-2.41,1.85-7.25,2.43c4.05.24,7.1,1.08,9.14,2.5a6.85,6.85,0,0,1,3.07,6A7.35,7.35,0,0,1,292,35q-3.74,2.24-11.41,2.23H264.26Zm10.46-18,.72,0c.9.05,1.5.08,1.79.08,2.78,0,4.82-.53,6.1-1.57s1.94-2.71,1.94-5a5.37,5.37,0,0,0-1.94-4.59q-1.92-1.46-6.14-1.45c-.22,0-.53,0-.93,0s-.92.06-1.54.13Zm0,1.84v6.11q0,5.94.95,7.2c.63.83,2,1.25,4,1.25q3.84,0,5.76-1.8a7.09,7.09,0,0,0,1.93-5.42c0-2.71-.68-4.63-2-5.79s-3.63-1.72-6.86-1.72L277,21C276.34,21,275.59,21,274.72,21.11Z" fill="#231815"/><path d="M119.58,19.74a13.44,13.44,0,0,0-.94,5.29v3.21c0,3.37.2,5.56.61,6.55a3.22,3.22,0,0,0,2.23,2l0,.52c-.71-.05-1.49-.08-2.35-.1s-2.12,0-3.77,0c-1.47,0-2.64,0-3.49,0s-1.67,0-2.45.1v-.52a3.5,3.5,0,0,0,2.23-2q.62-1.44.61-6.15V18.47a8,8,0,0,0-.51-3.62,2.49,2.49,0,0,0-2-.91v-.52c2-.25,3.7-.51,5.18-.77s2.72-.55,3.72-.84v5.43a23.26,23.26,0,0,1,4.44-6c2.62-2.35,7.4-6.46,13.32-6.46,3.4,0,5,1.59,5,3.72,0,1.89-1.64,3.46-4.13,3.46-2.3,0-3.32-1.06-5.51-1.06a10.85,10.85,0,0,0-5.83,1.93A18.21,18.21,0,0,0,119.58,19.74Z" fill="#231815"/><path d="M140.68,14c0,.91-.08,1.92-.1,3s0,2.81,0,5.09v6.12c0,3.37.2,5.56.61,6.55a3.22,3.22,0,0,0,2.23,2l0,.52c-.71-.05-1.49-.08-2.36-.1s-2.11,0-3.76,0c-1.47,0-2.64,0-3.49,0s-1.67,0-2.45.1v-.52a3.52,3.52,0,0,0,2.22-2q.61-1.45.62-6.14v-8a8,8,0,0,0-.51-3.63,2.49,2.49,0,0,0-2-.91v-.52q2.86-.36,5.07-.75T140.68,14Z" fill="#231815"/><path d="M169.85,27.4a13,13,0,0,1-3.17,6.1,7,7,0,0,1-5.09,2.07A6.5,6.5,0,0,1,156,32.75a12.94,12.94,0,0,1-2-7.55H170.9a18.81,18.81,0,0,0-.2-2.43,11.38,11.38,0,0,0-3.67-7,13.92,13.92,0,0,0-17,.93,11.62,11.62,0,0,0-3.48,8.7,11.82,11.82,0,0,0,3.53,8.87,12.65,12.65,0,0,0,9.16,3.41,11.75,11.75,0,0,0,7.48-2.31,13.27,13.27,0,0,0,4.3-6.93Zm-15.77-6.21a10.2,10.2,0,0,1,1.67-4.76,3.78,3.78,0,0,1,3.12-1.68,3.48,3.48,0,0,1,3,1.72,9,9,0,0,1,1.24,4.72l.07,2.43h-9.26c0-.27,0-.56,0-.88C154,21.74,154.08,21.19,154.08,21.19Z" fill="#231815"/><path d="M173.84,37.27l0-.48a3.48,3.48,0,0,0,2.27-2.07c.41-1,.62-3.2.62-6.52V20.61A8.05,8.05,0,0,0,176.2,17a2.42,2.42,0,0,0-2-.9v-.48c1.68-.2,3.23-.43,4.65-.7s2.69-.57,3.84-.9v5a9.28,9.28,0,0,1,3.13-4.24,8.26,8.26,0,0,1,4.87-1.4c3.05,0,5.32.9,6.79,2.68s2.21,4.53,2.21,8.21V28.2c0,3.37.22,5.56.63,6.58a3.33,3.33,0,0,0,2.26,2v.48c-.72-.05-1.51-.08-2.37-.1s-2.1,0-3.75,0-2.68,0-3.55,0-1.67,0-2.44.1l0-.48a3.45,3.45,0,0,0,2.23-2c.41-1,.61-2.93.61-5.9v-4.2c0-3.07-.36-5.3-1.1-6.69a3.76,3.76,0,0,0-3.56-2.08,4.67,4.67,0,0,0-4.06,2.39,11.67,11.67,0,0,0-1.54,6.38v3.1q0,5.43.62,7a3.3,3.3,0,0,0,2.27,2v.48c-.72-.05-1.51-.08-2.37-.1s-2.1,0-3.75,0-2.68,0-3.55,0S174.61,37.22,173.84,37.27Z" fill="#231815"/><path d="M247.26,36.46l0,.76-3.36-.06c-.75,0-1.45,0-2.08,0h-.18a2.92,2.92,0,0,1-2.69-1.73v0a15.12,15.12,0,0,1-.64-1.9,8.25,8.25,0,0,1-3,3.22,8.49,8.49,0,0,1-4.33,1,10.44,10.44,0,0,1-6.6-2,6.18,6.18,0,0,1-2.55-5.08q0-3.67,4-5.59t12-2.18v-.19a10.77,10.77,0,0,0-1.34-5.91,4.43,4.43,0,0,0-3.93-2,5.47,5.47,0,0,0-4.23,1.78,13.8,13.8,0,0,0-2.67,5.77H225l-2.06-6.62A23.89,23.89,0,0,1,228,13.93a25.1,25.1,0,0,1,5.4-.57,17.3,17.3,0,0,1,5.42.76,8,8,0,0,1,3.63,2.23A6.06,6.06,0,0,1,243.88,19a24,24,0,0,1,.43,5.52v2.06q0,5.7.64,7.62A3.08,3.08,0,0,0,247.26,36.46Zm-9.53-12.25-.39,0h-.63a8.1,8.1,0,0,0-5.46,1.65,5.92,5.92,0,0,0-1.91,4.75,6.37,6.37,0,0,0,1,3.79A3.11,3.11,0,0,0,233,35.77a3.76,3.76,0,0,0,3.6-2.39q1.11-2.39,1.11-7.78Z" fill="#231815"/><path d="M252.56,11.36a8,8,0,0,0-.51-3.62,2.49,2.49,0,0,0-2-.91V6.35c1.75-.21,3.37-.46,4.88-.72s2.88-.56,4.14-.86c0,.88-.08,2-.1,3.36s0,2.95,0,4.75V28.24c0,3.37.2,5.56.61,6.55a3.22,3.22,0,0,0,2.23,2l0,.52c-.71-.05-1.49-.08-2.35-.1s-2.12,0-3.77,0c-1.47,0-2.64,0-3.49,0s-1.67,0-2.45.1v-.52a3.5,3.5,0,0,0,2.23-2q.62-1.44.61-6.15V11.36Z" fill="#231815"/><path d="M219,33.35h-1a4.87,4.87,0,0,1-1.78,2.35,2.29,2.29,0,0,1-2.38,0,2.77,2.77,0,0,1-1.05-1.57c-.33-1.06-.43-3.35-.43-7.32V15.92H217l.52-1.87h-5.1V12.51c0-1.1,0-2.12.06-3.08s.09-1.8.16-2.56h-.72a17.75,17.75,0,0,1-3.29,4.42,20.48,20.48,0,0,1-4.73,3.35l-.24,1.28h2.49L206,27.48v3.21c0,4.91,1.87,7,6.09,7,.86,0,1.5,0,1.5,0C215.68,37.62,217.78,36.58,219,33.35Z" fill="#231815"/><path d="M308.62,14c0,.91-.07,1.92-.09,3s0,2.82,0,5.11v6.13c0,3.37.21,5.56.61,6.56a3.2,3.2,0,0,0,2.24,2l0,.53c-.71-.05-1.5-.08-2.36-.1s-2.12,0-3.77,0c-1.48,0-2.64,0-3.5,0s-1.67,0-2.45.1v-.53a3.48,3.48,0,0,0,2.22-2c.42-1,.62-3,.62-6.15v-8a8,8,0,0,0-.51-3.63,2.47,2.47,0,0,0-2-.92v-.52c1.92-.24,3.61-.49,5.08-.75S307.45,14.24,308.62,14Zm-7.16-5.41a3.8,3.8,0,0,1,1.06-2.75,3.59,3.59,0,0,1,2.67-1.1,3.64,3.64,0,0,1,2.68,1.1,3.77,3.77,0,0,1,1.07,2.75,3.79,3.79,0,0,1-1.07,2.75,3.64,3.64,0,0,1-2.68,1.1,3.58,3.58,0,0,1-2.69-1.08A3.8,3.8,0,0,1,301.46,8.54Z" fill="#231815"/><path d="M90.23,5.83a16.08,16.08,0,1,0,16.08,16.08A16.07,16.07,0,0,0,90.23,5.83ZM96.37,28c-5.24,5.24-12.24,6.75-15.63,3.36S78.85,21,84.1,15.77,96.34,9,99.72,12.41,101.61,22.8,96.37,28Z" fill="#231815"/><path d="M326.43,13.42a12.13,12.13,0,1,0,12.13,12.12A12.13,12.13,0,0,0,326.43,13.42Zm4.08,16.2c-3.9,3.9-8.89,5.23-11.14,3s-.91-7.23,3-11.13,8.88-5.23,11.13-3S334.4,25.72,330.51,29.62Z" fill="#231815"/></svg>